<svg width="52" height="36" viewBox="0 0 52 36" fill="none" xmlns="http://www.w3.org/2000/svg">
<g id="Group 1">
<path id="Vector" d="M15.469 23.3896L17.0493 28.5171C17.4044 29.6814 17.5524 30.4941 17.4931 30.9573C18.3574 28.6425 18.9613 26.1199 19.3049 23.3896H21.2051C20.3881 27.8345 19.3104 31.0646 17.9727 33.0796C16.9305 34.6324 15.7887 35.4088 14.5454 35.4088C14.2139 35.4088 13.8052 35.3086 13.3202 35.1098V34.0383C13.5572 34.073 13.8351 34.0916 14.1549 34.0916C14.7349 34.0916 15.2024 33.9308 15.5581 33.61C15.9839 33.2191 16.1971 32.7797 16.1971 32.2927C16.1971 31.9602 16.0308 31.2778 15.6998 30.2455L13.498 23.3896H15.4689H15.469ZM3.37421 20.238L6.26874 29.0694H6.28662L9.19892 20.238H11.5783C12.0993 24.6178 12.4071 28.6251 12.5015 32.2575H10.4955C10.4249 28.862 10.2294 25.669 9.90966 22.6781H9.89219L6.83739 32.2575H5.30969L2.27337 22.6781H2.2555C2.03023 25.5505 1.88845 28.7434 1.82934 32.2575H0C0.118219 27.9837 0.41407 23.9776 0.887555 20.238H3.37431H3.37421Z" fill="#00758F"/>
<path id="Vector_2" d="M35.8006 20.0596C38.9142 20.0596 40.4711 22.0488 40.4711 26.0253C40.4711 28.1861 40.0028 29.8183 39.0674 30.921C38.8988 31.1225 38.7124 31.2966 38.5162 31.4579L40.7196 32.5473L40.7174 32.5472L39.9351 33.8982L37.0657 32.224C36.59 32.3648 36.0667 32.4352 35.4964 32.4352C33.9676 32.4352 32.8256 31.9896 32.0706 31.0997C31.2419 30.1151 30.8277 28.5652 30.8277 26.4525C30.8277 24.3038 31.2951 22.6778 32.2309 21.5737C33.0832 20.5638 34.2733 20.0595 35.8006 20.0595V20.0596ZM26.2659 20.0771C27.3787 20.0771 28.3906 20.3749 29.302 20.9683L28.8391 21.9999C28.0592 21.6684 27.2903 21.5019 26.532 21.5019C25.9167 21.5019 25.4426 21.65 25.1122 21.948C24.7798 22.2433 24.5743 22.6234 24.5743 23.0867C24.5743 23.7986 25.0815 24.416 26.018 24.9377C26.3248 25.1054 26.6305 25.275 26.9352 25.4466L27.0051 25.4859L27.0401 25.5056L27.1101 25.5449L27.145 25.5646L27.2149 25.604C27.9238 26.0037 28.5909 26.3851 28.5909 26.3851C29.5273 27.0499 29.9941 27.7586 29.9941 28.9258C29.9941 29.9452 29.6205 30.782 28.8759 31.4367C28.1307 32.0886 27.1296 32.4154 25.8759 32.4154C24.7034 32.4154 23.567 32.0392 22.4663 31.2931L22.9812 30.2606C23.9285 30.7355 24.7856 30.9726 25.5554 30.9726C26.2773 30.9726 26.8424 30.8114 27.2512 30.4931C27.6591 30.1725 27.9036 29.7253 27.9036 29.1583C27.9036 28.4446 27.4072 27.8345 26.4965 27.3227C26.2114 27.1653 25.9272 27.0062 25.6438 26.8457L25.5741 26.8062C25.4459 26.7338 25.3168 26.6605 25.1904 26.5887L25.1218 26.5497C24.5068 26.1999 23.9752 25.8943 23.9752 25.8943C23.0648 25.2283 22.6082 24.5138 22.6082 23.3365C22.6082 22.3628 22.9487 21.5758 23.6285 20.9771C24.31 20.3771 25.1892 20.0771 26.2659 20.0771ZM44.1302 20.238V30.7789H47.9122V32.2575H42.2121V20.238H44.1302ZM50.0138 30.7835V31.0333H49.598V32.2561H49.2801V31.0333H48.8481V30.7835H50.0139H50.0138ZM50.7816 30.7835L51.1808 31.7873L51.5476 30.7835H51.9982V32.2561H51.6986V31.1354L51.2812 32.2561H51.0651L50.647 31.1354H50.631V32.2561H50.3475V30.7835H50.7817H50.7816ZM35.6048 21.5378C33.77 21.5378 32.852 23.052 32.852 26.0786C32.852 27.8123 33.0953 29.0694 33.5808 29.853C34.0306 30.5781 34.7349 30.94 35.694 30.94C37.5288 30.94 38.4466 29.4139 38.4466 26.3632C38.4466 24.6538 38.2034 23.4074 37.7184 22.6235C37.2682 21.8999 36.5641 21.5378 35.6049 21.5378H35.6048Z" fill="#F29111"/>
<path id="Vector_3" d="M30.7956 0.744765C31.4042 -0.750844 33.5325 0.38178 34.3584 0.904218C34.5608 1.03493 34.793 1.31108 35.025 1.41315C35.3871 1.42737 35.7489 1.4557 36.1116 1.47083C36.7918 1.63069 37.429 1.7613 37.9651 2.0666C40.4562 3.53367 42.0778 5.02867 43.5703 7.49806C43.8892 8.02111 44.0486 8.58712 44.3091 9.15312C44.6706 9.9968 45.0769 10.8824 45.4965 11.6802C45.6844 12.0584 45.8298 12.479 46.0907 12.7984C46.1925 12.9445 46.4819 12.9875 46.6549 13.0748C47.133 13.3223 47.7123 13.5102 48.162 13.8006C49.0019 14.3243 49.8139 14.9483 50.552 15.5871C50.8271 15.8337 51.0146 16.1828 51.2768 16.4436V16.5752C51.0441 16.6466 50.8122 16.7197 50.5801 16.7783C50.0732 16.9085 49.6242 16.8791 49.1325 17.0094C48.8286 17.0975 48.4513 17.2138 48.1326 17.2434L48.162 17.273C48.3495 17.8088 49.3639 18.2445 49.8279 18.5649C50.3913 18.9716 50.9135 19.4648 51.3337 20.0312C51.4789 20.1757 51.624 20.3072 51.7684 20.4513C51.8694 20.5974 51.8978 20.7863 52 20.9165V20.9606C51.8869 20.9207 51.8055 20.8445 51.7284 20.7649L51.6824 20.7168C51.6364 20.6691 51.59 20.6222 51.5371 20.5835C51.2173 20.3651 50.8999 20.1039 50.5801 19.9009C50.0305 19.5521 49.393 19.3497 48.8286 18.9996C48.5095 18.7964 48.2053 18.5649 47.9011 18.3323C47.6254 18.1285 47.3217 17.7371 47.1485 17.4466C47.0464 17.2861 47.0324 17.0975 46.9158 16.9815C46.9366 16.7876 47.1142 16.73 47.2935 16.6827L47.3347 16.6718C47.3966 16.6557 47.4571 16.6397 47.5099 16.6185C48.2629 16.2988 49.1606 16.1828 50.3198 16.2118C50.2762 15.9207 49.5518 15.5581 49.3206 15.3838C48.8564 15.0492 48.365 14.7002 47.8726 14.3957C47.6117 14.2362 47.1621 14.1198 46.873 13.9895C46.4819 13.8297 45.6126 13.6699 45.3959 13.3654C45.0277 12.8854 44.7633 12.3129 44.5065 11.7346L44.4366 11.5768C44.4133 11.5242 44.39 11.4716 44.3666 11.4191C44.0631 10.7227 43.6861 9.9966 43.3819 9.28353C43.2229 8.93568 43.1498 8.63038 42.9757 8.29675C41.9187 6.24945 40.3543 4.53538 38.4576 3.32994C37.8344 2.9377 37.1394 2.57472 36.3722 2.32802C35.9374 2.1967 35.4155 2.26932 34.9523 2.16857H34.6474C34.3872 2.09524 34.17 1.8194 33.967 1.67396C33.5186 1.36948 33.0695 1.16503 32.5332 0.947788C32.3453 0.860647 31.8088 0.657726 31.6215 0.817483C31.5055 0.846632 31.4467 0.890405 31.4181 1.0068C31.3028 1.18047 31.4042 1.44209 31.476 1.60226C31.6936 2.0664 31.9975 2.34224 32.2733 2.73448C32.5187 3.08233 32.8235 3.47456 32.9974 3.85278C33.3728 4.66579 33.5476 5.56655 33.8955 6.37945C34.0244 6.68515 34.2285 7.03301 34.4163 7.30875C34.5754 7.52762 34.8648 7.68585 34.9523 7.96291C35.1268 8.25338 34.6911 9.21183 34.5902 9.51621C34.2129 10.7072 34.2861 12.3628 34.7206 13.3952L34.7437 13.4496L34.7669 13.5048C34.9255 13.8829 35.0953 14.2901 35.5171 14.3958C35.5462 14.3669 35.5171 14.3821 35.5747 14.3669C35.6768 13.5678 35.7055 12.7983 35.9809 12.1731C36.1401 11.7822 36.4579 11.5058 36.6757 11.1867C36.821 11.2736 36.821 11.5358 36.9075 11.7092C37.096 12.1592 37.2984 12.6525 37.5308 13.1037C38.0077 14.033 38.5444 14.934 39.1524 15.7469C39.3561 16.0372 39.645 16.3568 39.9056 16.6184C40.0217 16.7196 40.1517 16.7781 40.239 16.9084H40.2674V16.9523C39.8329 16.7921 39.5575 16.3426 39.2109 16.0802C38.5585 15.5869 37.7772 14.8461 37.3275 14.1353C37.1394 13.7272 36.936 13.3361 36.7333 12.93V12.9007C36.6467 13.0167 36.6757 13.1318 36.6324 13.3073C36.4443 14.033 36.5891 14.8608 35.9374 15.1218C35.1986 15.4276 34.6475 14.6286 34.4163 14.2655C33.6773 13.0603 33.4749 11.0273 33.996 9.38611C34.1118 9.02282 34.1275 8.58712 34.3296 8.29705C34.286 8.03482 34.0839 7.96311 33.967 7.80244C33.7642 7.52782 33.5907 7.2079 33.4319 6.9029C33.127 6.30714 32.9101 5.59529 32.6786 4.95636C32.5769 4.69544 32.5477 4.43351 32.4463 4.18651C32.2732 3.80951 31.9542 3.4313 31.7081 3.09776C31.3749 2.61839 30.4044 1.6893 30.7956 0.744765ZM35.5459 3.59004C35.5845 3.62883 35.6313 3.66276 35.6796 3.69617L35.7379 3.73619C35.8156 3.79001 35.8909 3.84669 35.937 3.92387C36.0101 4.02605 36.0237 4.1269 36.1113 4.22927C36.1113 4.57834 36.0101 4.81041 35.8059 4.95504C35.8059 4.95504 35.7919 4.97027 35.7776 4.98449C35.6618 4.75181 35.5604 4.52035 35.4438 4.28787C35.3002 4.08495 35.0971 3.92398 34.9801 3.69211H34.952V3.66296C35.1268 3.6198 35.3002 3.59004 35.5459 3.59004Z" fill="#00758F"/>
</g>
</svg>
