<svg width="50" height="31" viewBox="0 0 50 31" fill="none" xmlns="http://www.w3.org/2000/svg">
<g id="Group">
<path id="Vector" d="M24.7286 30.6171C24.5592 30.6171 24.4009 30.5719 24.254 30.4928L22.7509 29.6C22.5248 29.4756 22.6378 29.4304 22.7057 29.4078C23.0108 29.3061 23.0673 29.2835 23.3838 29.1027C23.4177 29.08 23.463 29.0914 23.4968 29.114L24.6496 29.8034C24.6948 29.826 24.7513 29.826 24.7852 29.8034L29.2947 27.1926C29.3399 27.17 29.3625 27.1248 29.3625 27.0683V21.8582C29.3625 21.8015 29.3399 21.7565 29.2947 21.7338L24.7852 19.1344C24.74 19.1117 24.6835 19.1117 24.6496 19.1344L20.1401 21.7338C20.0949 21.7564 20.0722 21.8129 20.0722 21.8581V27.0682C20.0722 27.1135 20.0949 27.1699 20.1401 27.1926L21.372 27.9046C22.0389 28.2437 22.457 27.8481 22.457 27.4526V22.3101C22.457 22.2424 22.5135 22.1745 22.5926 22.1745H23.169C23.2369 22.1745 23.3046 22.231 23.3046 22.3101V27.4526C23.3046 28.3454 22.8186 28.8653 21.971 28.8653C21.7111 28.8653 21.5077 28.8653 20.9312 28.5827L19.7445 27.9046C19.4507 27.7352 19.2699 27.4186 19.2699 27.0796V21.8694C19.2699 21.5304 19.4507 21.2138 19.7445 21.0444L24.254 18.4336C24.5366 18.2754 24.9209 18.2754 25.2034 18.4336L29.7128 21.0444C30.0067 21.2138 30.1876 21.5304 30.1876 21.8694V27.0796C30.1876 27.4186 30.0067 27.7352 29.7128 27.9046L25.2034 30.5154C25.0564 30.5833 24.887 30.6171 24.7287 30.6171H24.7286ZM26.1188 27.0344C24.141 27.0344 23.7341 26.1303 23.7341 25.3617C23.7341 25.2939 23.7906 25.2261 23.8698 25.2261H24.4575C24.5252 25.2261 24.5818 25.2713 24.5818 25.3391C24.6722 25.9381 24.9321 26.232 26.1301 26.232C27.0795 26.232 27.4865 26.0172 27.4865 25.5086C27.4865 25.2148 27.3733 25.0001 25.8928 24.8531C24.6609 24.7288 23.8924 24.4576 23.8924 23.4743C23.8924 22.5588 24.661 22.0163 25.9493 22.0163C27.3959 22.0163 28.108 22.5136 28.1985 23.5985C28.1985 23.6325 28.1871 23.6664 28.1645 23.7003C28.1419 23.7229 28.108 23.7455 28.0741 23.7455H27.4864C27.4299 23.7455 27.3733 23.7003 27.3621 23.6438C27.2265 23.0222 26.8761 22.8187 25.9493 22.8187C24.9095 22.8187 24.7852 23.1805 24.7852 23.4516C24.7852 23.7794 24.9321 23.8811 26.3335 24.0619C27.7237 24.2428 28.3793 24.5028 28.3793 25.4747C28.3679 26.4693 27.5542 27.0344 26.1188 27.0344Z" fill="#539E43"/>
<path id="Vector_2" d="M10.7369 10.2397C10.7369 10.0363 10.6239 9.84401 10.443 9.74231L5.65101 6.98467C5.5718 6.9394 5.48144 6.91681 5.39109 6.90546H5.34581C5.25545 6.90546 5.165 6.9394 5.08589 6.98467L0.293855 9.74231C0.112946 9.84401 0 10.0362 0 10.2397L0.0113435 17.6537C0.0113435 17.7554 0.0678653 17.8571 0.158222 17.9024C0.248676 17.9589 0.361622 17.9589 0.440831 17.9024L3.28892 16.2749C3.46974 16.1732 3.58278 15.981 3.58278 15.7776V12.3079C3.58278 12.1045 3.69572 11.9123 3.87663 11.8106L5.08589 11.1099C5.17634 11.0534 5.27804 11.0307 5.37974 11.0307C5.48144 11.0307 5.58314 11.0534 5.66235 11.1099L6.87161 11.8106C7.05251 11.9123 7.16546 12.1044 7.16546 12.3079V15.7776C7.16546 15.981 7.2785 16.1732 7.45931 16.2749L10.3074 17.9024C10.3514 17.9301 10.4023 17.9448 10.4543 17.9448C10.5063 17.9448 10.5573 17.9301 10.6013 17.9024C10.6917 17.8571 10.7482 17.7554 10.7482 17.6537L10.7369 10.2397ZM33.7703 0.0339571C33.68 -0.011319 33.5669 -0.011319 33.4877 0.0339571C33.3974 0.0904789 33.3408 0.180836 33.3408 0.282536V7.62891C33.3408 7.69667 33.307 7.76444 33.2391 7.80972C33.1714 7.84355 33.1035 7.84355 33.0357 7.80972L31.8377 7.12031C31.7499 7.0703 31.6506 7.044 31.5495 7.044C31.4484 7.044 31.3491 7.0703 31.2613 7.12031L26.4692 9.88929C26.2884 9.99099 26.1754 10.1831 26.1754 10.3865V15.9132C26.1754 16.1166 26.2884 16.3088 26.4692 16.4105L31.2613 19.1795C31.3491 19.2295 31.4484 19.2558 31.5495 19.2558C31.6506 19.2558 31.7499 19.2295 31.8377 19.1795L36.6298 16.4105C36.8106 16.3088 36.9236 16.1167 36.9236 15.9132V2.13612C36.9236 1.92138 36.8106 1.72932 36.6298 1.62752L33.7704 0.0339571H33.7703ZM33.3296 14.0936C33.3296 14.1501 33.307 14.1953 33.2617 14.2179L31.623 15.1672C31.6001 15.1784 31.575 15.1842 31.5495 15.1842C31.524 15.1842 31.4989 15.1784 31.476 15.1672L29.8373 14.2179C29.792 14.1953 29.7694 14.1388 29.7694 14.0936V12.1949C29.7694 12.1383 29.792 12.0932 29.8373 12.0706L31.476 11.1211C31.4989 11.11 31.524 11.1042 31.5495 11.1042C31.575 11.1042 31.6001 11.11 31.623 11.1211L33.2617 12.0706C33.307 12.0931 33.3296 12.1497 33.3296 12.1949V14.0936ZM49.7174 12.1497C49.8983 12.048 50 11.8558 50 11.6523V10.3074C50 10.104 49.887 9.91188 49.7174 9.81018L44.9593 7.05254C44.8715 7.00253 44.7721 6.97623 44.6711 6.97623C44.57 6.97623 44.4707 7.00253 44.3828 7.05254L39.5908 9.82142C39.4099 9.92312 39.2969 10.1153 39.2969 10.3187V15.8454C39.2969 16.0488 39.41 16.241 39.5908 16.3427L44.3489 19.0551C44.5298 19.1568 44.7445 19.1568 44.9141 19.0551L47.796 17.4504C47.8865 17.4051 47.943 17.3034 47.943 17.2017C47.943 17.1 47.8865 16.9983 47.796 16.953L42.9814 14.1841C42.891 14.1275 42.8344 14.0372 42.8344 13.9355V12.2063C42.8344 12.1046 42.891 12.0029 42.9814 11.9576L44.4845 11.0986C44.5285 11.0709 44.5795 11.0563 44.6315 11.0563C44.6834 11.0563 44.7344 11.0709 44.7784 11.0986L46.2816 11.9576C46.372 12.0141 46.4285 12.1045 46.4285 12.2063V13.5625C46.4285 13.6642 46.485 13.7659 46.5754 13.8111C46.6194 13.8388 46.6704 13.8535 46.7224 13.8535C46.7744 13.8535 46.8253 13.8388 46.8693 13.8111L49.7174 12.1497Z" fill="#333333"/>
<path id="Vector_3" d="M44.5975 11.8896C44.6143 11.8786 44.634 11.8727 44.6541 11.8727C44.6742 11.8727 44.6938 11.8786 44.7106 11.8896L45.6261 12.4208C45.6599 12.4435 45.6825 12.4773 45.6825 12.5225V13.585C45.6825 13.6302 45.66 13.6641 45.6261 13.6867L44.7106 14.2179C44.6938 14.2289 44.6742 14.2348 44.6541 14.2348C44.634 14.2348 44.6143 14.2289 44.5975 14.2179L43.6821 13.6867C43.6482 13.6641 43.6256 13.6302 43.6256 13.585V12.5226C43.6256 12.4773 43.6481 12.4434 43.6821 12.4209L44.5975 11.8896Z" fill="#539E43"/>
<g id="Group_2">
<g id="Group_3">
<path id="Vector_4" d="M23.5194 9.82149L18.7387 7.0752C18.6917 7.05148 18.6425 7.03254 18.5917 7.01868L13.2346 16.1959C13.279 16.2501 13.3326 16.296 13.3929 16.3316L18.1736 19.078C18.3092 19.1571 18.4675 19.1797 18.6143 19.1344L23.6438 9.93464C23.6099 9.88946 23.5646 9.85543 23.5194 9.82159V9.82149Z" fill="url(#paint0_linear_103_51)"/>
</g>
<g id="Group_4">
<path id="Vector_5" fill-rule="evenodd" clip-rule="evenodd" d="M18.0154 6.06921L17.9477 6.10315H18.038L18.0154 6.06921Z" fill="url(#paint1_linear_103_51)"/>
<path id="Vector_6" fill-rule="evenodd" clip-rule="evenodd" d="M23.5308 16.3202C23.6665 16.241 23.7682 16.1054 23.8134 15.9585L18.5691 7.00736C18.4335 6.98477 18.2865 6.99601 18.1623 7.07512L13.4155 9.81027L18.5352 19.1457C18.6096 19.1335 18.682 19.1106 18.7499 19.0779L23.5307 16.3203L23.5308 16.3202Z" fill="url(#paint2_linear_103_51)"/>
<path id="Vector_7" fill-rule="evenodd" clip-rule="evenodd" d="M23.9716 16.2297L23.9377 16.1732V16.2523L23.9715 16.2297H23.9716Z" fill="url(#paint3_linear_103_51)"/>
<path id="Vector_8" fill-rule="evenodd" clip-rule="evenodd" d="M23.5308 16.3201L18.7614 19.0665C18.694 19.1008 18.6215 19.1237 18.5466 19.1343L18.6371 19.3038L23.9264 16.2411V16.1732L23.7907 15.9471C23.7681 16.1054 23.6664 16.241 23.5308 16.3201Z" fill="url(#paint4_linear_103_51)"/>
<path id="Vector_9" fill-rule="evenodd" clip-rule="evenodd" d="M23.5308 16.3201L18.7614 19.0665C18.694 19.1008 18.6215 19.1237 18.5466 19.1343L18.6371 19.3038L23.9264 16.2411V16.1732L23.7907 15.9471C23.7681 16.1054 23.6664 16.241 23.5308 16.3201Z" fill="url(#paint5_linear_103_51)"/>
</g>
</g>
</g>
<defs>
<linearGradient id="paint0_linear_103_51" x1="17.7394" y1="13.7155" x2="30.8009" y2="6.61913" gradientUnits="userSpaceOnUse">
<stop offset="0.1376" stop-color="#41873F"/>
<stop offset="0.4032" stop-color="#54A044"/>
<stop offset="0.7136" stop-color="#66B848"/>
<stop offset="0.9081" stop-color="#6CC04A"/>
</linearGradient>
<linearGradient id="paint1_linear_103_51" x1="13.9595" y1="6.07377" x2="22.7618" y2="6.07377" gradientUnits="userSpaceOnUse">
<stop offset="0.09192" stop-color="#6CC04A"/>
<stop offset="0.2864" stop-color="#66B848"/>
<stop offset="0.5968" stop-color="#54A044"/>
<stop offset="0.8624" stop-color="#41873F"/>
</linearGradient>
<linearGradient id="paint2_linear_103_51" x1="12.9591" y1="13.071" x2="23.9693" y2="13.071" gradientUnits="userSpaceOnUse">
<stop offset="0.09192" stop-color="#6CC04A"/>
<stop offset="0.2864" stop-color="#66B848"/>
<stop offset="0.5968" stop-color="#54A044"/>
<stop offset="0.8624" stop-color="#41873F"/>
</linearGradient>
<linearGradient id="paint3_linear_103_51" x1="20.6415" y1="16.2019" x2="23.9471" y2="16.2019" gradientUnits="userSpaceOnUse">
<stop offset="0.09192" stop-color="#6CC04A"/>
<stop offset="0.2864" stop-color="#66B848"/>
<stop offset="0.5968" stop-color="#54A044"/>
<stop offset="0.8624" stop-color="#41873F"/>
</linearGradient>
<linearGradient id="paint4_linear_103_51" x1="12.9592" y1="17.6347" x2="23.9692" y2="17.6347" gradientUnits="userSpaceOnUse">
<stop offset="0.09192" stop-color="#6CC04A"/>
<stop offset="0.2864" stop-color="#66B848"/>
<stop offset="0.5968" stop-color="#54A044"/>
<stop offset="0.8624" stop-color="#41873F"/>
</linearGradient>
<linearGradient id="paint5_linear_103_51" x1="25.5733" y1="8.86221" x2="22.784" y2="23.478" gradientUnits="userSpaceOnUse">
<stop stop-color="#41873F"/>
<stop offset="0.3288" stop-color="#418B3D"/>
<stop offset="0.6352" stop-color="#419637"/>
<stop offset="0.9319" stop-color="#3FA92D"/>
<stop offset="1" stop-color="#3FAE2A"/>
</linearGradient>
</defs>
</svg>
