<svg width="41" height="47" viewBox="0 0 41 47" fill="none" xmlns="http://www.w3.org/2000/svg">
<g id="HTML5">
<path id="Vector" d="M4.43536 41.5346L0.815002 0.930908H40.5954L36.9702 41.5282L20.681 46.0444L4.43536 41.5346Z" fill="#E44F26"/>
<path id="Vector_2" d="M20.7052 42.5932L33.8686 38.9438L36.9653 4.25159H20.7052V42.5932Z" fill="#F1662A"/>
<path id="Vector_3" d="M20.7052 19.3099H14.1154L13.661 14.2104H20.7052V9.23022H8.2184L8.33763 10.5675L9.56052 24.2901H20.7052V19.3099ZM20.7052 32.2429L20.6826 32.2494L15.1369 30.7526L14.7824 26.781H9.78287L10.4805 34.5985L20.6826 37.431L20.7052 37.4245V32.2429Z" fill="#EBEBEB"/>
<path id="Vector_4" d="M20.6875 19.3099V24.2901H26.8197L26.2429 30.7493L20.6875 32.2478V37.4294L30.8976 34.5985L30.9717 33.7574L32.1414 20.6472L32.2639 19.3099H20.6875ZM20.6875 9.23022V14.2104H32.7166L32.8165 13.0923L33.0437 10.5675L33.1629 9.23022H20.6875Z" fill="white"/>
</g>
</svg>
