<svg width="42" height="42" viewBox="0 0 42 42" fill="none" xmlns="http://www.w3.org/2000/svg">
<g id="JavaScript">
<path id="Vector" d="M0 0H42V42H0V0Z" fill="#F5DE19"/>
<path id="Vector_2" d="M28.2136 32.8125C28.5715 33.5394 29.1274 34.1503 29.8175 34.575C30.5075 34.9996 31.3034 35.2206 32.1136 35.2125C33.7486 35.2125 34.7941 34.395 34.7941 33.2625C34.7941 31.9125 33.7201 31.4295 31.9201 30.642L30.9331 30.219C28.0831 29.0055 26.1931 27.486 26.1931 24.273C26.1931 21.3135 28.4431 19.059 31.9726 19.059C33.1152 18.9765 34.2567 19.2322 35.2549 19.7942C36.2531 20.3563 37.0637 21.1998 37.5856 22.2195L34.5001 24.192C34.2991 23.6864 33.9492 23.2538 33.4967 22.9516C33.0443 22.6494 32.5106 22.4919 31.9666 22.5C31.7292 22.4762 31.4895 22.5022 31.2628 22.5762C31.036 22.6501 30.8271 22.7706 30.6494 22.9298C30.4718 23.0889 30.3292 23.2834 30.2308 23.5007C30.1325 23.718 30.0805 23.9534 30.0781 24.192C30.0781 25.3755 30.8116 25.8555 32.5051 26.592L33.4921 27.015C36.8461 28.4535 38.7421 29.919 38.7421 33.2145C38.7421 36.768 35.9506 38.715 32.2021 38.715C30.7416 38.808 29.2853 38.4764 28.009 37.7602C26.7328 37.0439 25.6911 35.9736 25.0096 34.6785L28.2136 32.8125ZM14.2711 33.1545C14.8906 34.254 15.4546 35.184 16.8106 35.184C18.1066 35.184 18.9256 34.677 18.9256 32.7045V19.284H22.8721V32.757C22.8721 36.843 20.4721 38.703 16.9786 38.703C15.7437 38.7705 14.5173 38.4627 13.4606 37.8202C12.4039 37.1777 11.5664 36.2304 11.0581 35.103L14.2711 33.1545Z" fill="black"/>
</g>
</svg>
